<svg xmlns="http://www.w3.org/2000/svg" version="1.1" xmlns:xlink="http://www.w3.org/1999/xlink" width="600" height="600"><svg version="1.1" id="SvgjsSvg1035" width="600" height="600" viewBox="0 0 600 600" sodipodi:docname="MehtalogyLogo.svg" inkscape:version="1.4.2 (ebf0e940d0, 2025-05-08)" xmlns:inkscape="http://www.inkscape.org/namespaces/inkscape" xmlns:sodipodi="http://sodipodi.sourceforge.net/DTD/sodipodi-0.dtd" xmlns="http://www.w3.org/2000/svg" xmlns:svg="http://www.w3.org/2000/svg">
  <defs id="SvgjsDefs1034"></defs>
  <sodipodi:namedview id="SvgjsSodipodi:namedview1033" pagecolor="#ffffff" bordercolor="#111111" borderopacity="1" inkscape:showpageshadow="0" inkscape:pageopacity="0" inkscape:pagecheckerboard="1" inkscape:deskcolor="#d1d1d1" inkscape:zoom="1.1044922" inkscape:cx="511.99999" inkscape:cy="367.13704" inkscape:window-width="2494" inkscape:window-height="1363" inkscape:window-x="0" inkscape:window-y="0" inkscape:window-maximized="1" inkscape:current-layer="g1" showgrid="false"></sodipodi:namedview>
  <g inkscape:groupmode="layer" inkscape:label="Image" id="SvgjsG1032">
    <path style="fill:#2563eb;fill-opacity:1;stroke-width:1.43225" d="m 324.48356,577.28881 c -11.1224,-5.02544 -17.6534,-17.45973 -17.70033,-33.6994 -0.0373,-12.91388 3.6529,-22.59981 11.16276,-29.29955 l 5.6077,-5.00278 0.0508,-88.83573 c 0.0419,-73.2705 0.37175,-89.58231 1.88297,-93.09663 1.00774,-2.34349 12.13214,-15.97685 24.72088,-30.29638 l 22.88861,-26.0355 -0.34528,-33.13608 c -0.23781,-22.82354 -0.79099,-33.13608 -1.77745,-33.13608 -0.78771,0 -14.73961,15.62129 -31.00423,34.71399 -16.26461,19.0927 -30.83052,35.5764 -32.36865,36.63046 -3.59764,2.46542 -12.38787,2.46542 -16.02131,0 -1.55343,-1.05406 -16.30055,-17.71528 -32.77136,-37.02494 -16.47083,-19.30966 -30.86733,-35.10847 -31.99225,-35.10847 -1.1249,0 -2.33682,0.92215 -2.69315,2.04921 -0.84485,2.67223 -1.58776,55.47052 -0.88145,62.64504 0.41641,4.2299 1.8098,6.69818 5.95242,10.54427 10.09794,9.37509 41.80163,46.42761 43.37606,50.69413 1.13189,3.06738 1.58265,21.3314 1.62503,65.84361 l 0.0587,61.59879 5.86164,5.947 c 10.03843,10.18464 13.98359,24.00356 11.06645,38.76281 -3.175,16.06377 -12.91518,26.37055 -26.5192,28.06186 -19.32782,2.40286 -34.34174,-15.60591 -33.07892,-39.67724 0.64902,-12.37121 4.2451,-20.74447 11.89192,-27.68948 l 6.0775,-5.51976 V 400.04203 342.8621 L 236.2281,325.39383 c -11.23573,-14.729 -13.37196,-16.89756 -13.62263,-13.82891 -0.1635,2.00166 -0.45601,37.39924 -0.65002,78.66126 -0.32533,69.19521 -0.5347,75.35883 -2.69577,79.36036 -4.15051,7.68525 -6.35453,8.03978 -50.30825,8.0929 -38.31007,0.0462 -41.69353,-0.18014 -52.46451,-3.51108 -25.205123,-7.79469 -43.501193,-20.4503 -62.024553,-42.90312 -18.77726,-22.76062 -29.80604,-46.52433 -37.33312,-80.44159 -3.08956,-13.92164 -6.068697,-15.83297 -6.068697,-45.64289 0,-29.8099 2.979137,-35.34284 6.068697,-49.26445 11.47955,-51.7273 36.47485,-90.66409 71.87019,-111.9568 18.510733,-11.13549 29.838283,-14.42852 51.915983,-15.09255 l 18.11512,-0.54484 5.93546,-13.92823 C 202.61885,26.037366 292.01751,-7.4262361 367.20631,38.691558 c 39.90097,24.473663 70.92447,72.465932 79.98257,123.730322 l 1.36841,7.74444 21.07605,0.0289 c 17.64548,0.0242 22.87469,0.60555 32.1263,3.57214 29.73344,9.53423 56.72752,35.27193 72.18891,68.82903 27.07195,58.75643 19.09369,139.40218 -18.67226,188.74267 -14.79807,19.33338 -31.73833,32.48041 -52.86663,41.02886 -8.86539,3.58692 -10.53029,3.69577 -64.51626,4.21875 l -55.41603,0.5368 -3.64608,-3.80658 c -5.18245,-5.41058 -5.53816,-11.26295 -5.66513,-93.20719 l -0.10971,-70.79489 -12.25811,13.99011 -12.25811,13.99013 -0.0922,86.26181 -0.0922,86.26183 4.48459,3.36404 c 16.98296,12.73954 15.50422,48.05105 -2.55004,60.89308 -7.18779,5.11272 -18.48838,6.51968 -25.80669,3.21303 z m 18.23171,-23.63897 c 7.20555,-7.52273 2.56326,-24.63889 -6.68261,-24.63889 -1.69281,0 -4.87777,1.83826 -7.07769,4.08503 -3.22538,3.29407 -3.99984,5.29386 -3.99984,10.32814 0,12.34552 10.13847,18.18292 17.76014,10.22572 z M 268.954,502.83518 c 6.7654,-6.9095 4.87246,-18.37915 -3.74858,-22.71336 -3.17679,-1.59716 -4.72695,-1.59716 -7.90375,0 -8.15013,4.09747 -10.07467,13.73329 -4.38278,21.9436 4.36099,6.29052 10.34811,6.5779 16.03511,0.76976 z m -71.40202,-75.59935 v -19.72387 c 0.3658,-18.78187 -0.15422,-38.14095 0.4414,-57.19924 0.46789,-14.97041 0.85246,-33.78697 0.85465,-41.81458 l 0.005,-14.59567 h -22.10054 c -13.82444,0 -22.10056,0.5892 -22.10056,1.57339 0,2.92343 -9.53821,14.41278 -14.53253,17.5053 -11.76171,7.28293 -25.74918,5.23043 -35.52394,-5.21276 -10.049373,-10.73654 -13.819773,-23.4959 -11.063673,-37.44031 4.428072,-22.40364 21.837273,-35.45608 40.170843,-30.11784 9.10393,2.65082 16.69016,9.70236 19.89322,18.49109 l 2.61823,7.18413 5.90053,-0.98163 c 3.24531,-0.53989 12.83908,-0.98163 21.31948,-0.98163 h 15.41894 V 231.5244 c 0,-34.55844 0.74874,-39.76242 6.88723,-47.86837 7.14446,-9.43431 22.09338,-13.7394 31.37101,-9.03439 2.40563,1.21999 17.06523,17.0188 32.57691,35.10847 15.51166,18.08968 28.78599,33.14767 29.4985,33.46216 0.71253,0.31448 13.67607,-14.32195 28.80787,-32.52546 30.01518,-36.10812 31.86977,-37.61899 44.60405,-36.33725 9.44718,0.95089 16.67459,7.15947 21.66817,18.6137 l 3.77172,8.65156 -0.46527,38.65877 -0.46528,38.65874 25.53628,0.42728 25.53627,0.42727 3.51424,-7.27834 c 4.35679,-9.02335 11.19683,-13.21599 21.64167,-13.26541 21.31801,-0.10085 35.40654,25.16254 27.10074,48.5967 -9.44775,26.65616 -37.39464,30.51806 -50.14729,6.92972 l -4.01953,-7.43484 -24.58118,0.25351 -24.5812,0.25354 c 1.08587,39.81809 0.92392,79.58603 0.64963,119.41405 v 19.72385 h 42.04308 c 37.56328,0 43.10926,-0.33097 52.04903,-3.10608 26.14099,-8.11479 49.5437,-31.62646 62.39047,-62.68093 12.99707,-31.4178 14.73303,-77.74789 4.11417,-109.80077 -10.1168,-30.53744 -31.7173,-55.70481 -56.59418,-65.9396 -12.11571,-4.98462 -37.76326,-6.09715 -52.72202,-2.28698 -5.97955,1.52307 -12.37681,2.31078 -14.21614,1.75045 -4.30473,-1.31135 -8.45262,-9.60108 -8.45884,-16.9053 -0.008,-8.87852 -5.79487,-34.44098 -10.73633,-47.42219 C 408.97952,123.10588 402.80896,112.2466 391.1781,97.542095 373.38392,75.045516 351.42809,59.267211 328.04593,52.172832 318.93618,49.408827 312.67217,48.66118 298.3051,48.623065 c -18.34888,-0.04876 -24.55461,1.067616 -40.95101,7.366293 -34.98155,13.438194 -64.62582,48.084542 -76.71424,89.658762 -2.13387,7.33875 -4.90533,14.29268 -6.15881,15.45318 -2.37895,2.20246 -9.43982,1.82394 -23.66686,-1.26875 -8.99099,-1.95446 -27.94629,0.30795 -38.09346,4.54669 -41.525073,17.34607 -69.377173,62.83193 -75.067023,122.5935 -1.73956,18.27107 -0.3019,40.12318 3.92051,59.59071 10.42513,48.06544 40.42192,84.81858 79.276483,97.1324 8.41725,2.6676 14.32691,3.10193 43.22609,3.17693 l 33.47582,0.0869 z m 284.38204,-124.8022 c 3.60985,-4.90355 3.72598,-10.02552 0.34557,-15.24157 -5.07637,-7.83299 -13.83012,-6.80359 -17.61116,2.07099 -1.75597,4.12154 -1.84638,5.74988 -0.53279,9.59898 3.22994,9.46455 12.14339,11.25319 17.79838,3.5716 z m -349.7724,-12.48077 c 3.79152,-3.22335 6.02412,-11.81242 4.4099,-16.96558 -4.56159,-14.56246 -22.22161,-10.70863 -22.22161,4.84926 0,11.55622 10.26053,18.53588 17.81171,12.11632 z" id="SvgjsPath1031" sodipodi:nodetypes="ssscssscsssssssssssscssssscccsssssssssssscssscsssssscsscccccssssssssssssssccsccssssssscsscsssssssscccccsssscccccssssssscsssssssssssssccsssssssss"></path>
  </g>
</svg><style>@media (prefers-color-scheme: light) { :root { filter: none; } }
@media (prefers-color-scheme: dark) { :root { filter: none; } }
</style></svg>