<?xml version="1.0" encoding="UTF-8" standalone="no"?>
<!-- Created with Inkscape (http://www.inkscape.org/) -->

<svg
   version="1.1"
   id="svg1"
   width="608.76538"
   height="504.03268"
   viewBox="0 0 608.76538 504.03268"
   sodipodi:docname="Mehtalogy.svg"
   inkscape:version="1.4.2 (ebf0e940d0, 2025-05-08)"
   xmlns:inkscape="http://www.inkscape.org/namespaces/inkscape"
   xmlns:sodipodi="http://sodipodi.sourceforge.net/DTD/sodipodi-0.dtd"
   xmlns="http://www.w3.org/2000/svg"
   xmlns:svg="http://www.w3.org/2000/svg">
  <defs
     id="defs1">
    <inkscape:path-effect
       effect="fillet_chamfer"
       id="path-effect1"
       is_visible="true"
       lpeversion="1"
       nodesatellites_param="F,0,0,1,0,0,0,1 @ F,0,0,1,0,0.36905665,0,1 @ F,0,0,1,0,0,0,1 @ F,0,0,1,0,0,0,1 @ F,0,0,1,0,0,0,1 @ F,0,0,1,0,0,0,1 @ F,0,0,1,0,0,0,1 @ F,0,0,1,0,0,0,1"
       radius="0"
       unit="px"
       method="auto"
       mode="F"
       chamfer_steps="1"
       flexible="false"
       use_knot_distance="true"
       apply_no_radius="true"
       apply_with_radius="true"
       only_selected="false"
       hide_knots="false" />
  </defs>
  <sodipodi:namedview
     id="namedview1"
     pagecolor="#ffffff"
     bordercolor="#111111"
     borderopacity="1"
     inkscape:showpageshadow="0"
     inkscape:pageopacity="0"
     inkscape:pagecheckerboard="1"
     inkscape:deskcolor="#d1d1d1"
     inkscape:zoom="1.1044922"
     inkscape:cx="505.20954"
     inkscape:cy="506.56763"
     inkscape:window-width="2494"
     inkscape:window-height="1363"
     inkscape:window-x="0"
     inkscape:window-y="0"
     inkscape:window-maximized="1"
     inkscape:current-layer="layer1" />
  <g
     inkscape:groupmode="layer"
     id="layer1"
     inkscape:label="Image 1"
     style="display:inline;opacity:1;mix-blend-mode:normal;fill:#dfdbdb;fill-opacity:1">
    <path
       style="fill:#ffffff;fill-opacity:1;stroke:#ffffff;stroke-opacity:1"
       id="rect1"
       width="607.51904"
       height="502.49335"
       x="0.90539342"
       y="0.90539342"
       inkscape:path-effect="#path-effect1"
       sodipodi:type="rect"
       d="M 43.458887,0.90539342 H 565.50189 c 0.20382,0 0.53429,-1.6283e-4 0.73811,0.001552 C 589.64333,1.1037932 608.42444,20.007395 608.42444,43.458887 V 460.84525 c 0,23.57463 -18.97886,42.55349 -42.5535,42.55349 H 43.458887 c -23.574635,0 -42.55349358,-18.97886 -42.55349358,-42.55349 V 43.458887 c 0,-23.574635 18.97885858,-42.55349358 42.55349358,-42.55349358 z"
       ry="42.553493" />
    <g
       inkscape:groupmode="layer"
       inkscape:label="Image"
       id="g1"
       transform="translate(-6.5335768,-5.326792)"
       style="opacity:1;mix-blend-mode:normal">
      <path
         style="fill:#0d3385;fill-opacity:1;stroke-width:1.39537"
         d="m 334.81718,507.75509 c -11.75159,-4.51455 -18.65206,-15.68474 -18.70164,-30.27345 -0.0394,-11.60103 3.85954,-20.30227 11.79424,-26.3209 l 5.92493,-4.49419 0.0536,-79.8045 c 0.0443,-65.82167 0.39278,-80.47519 1.9895,-83.63224 1.06474,-2.10524 12.81845,-14.35261 26.11934,-27.21638 l 24.18342,-23.38868 -0.36481,-29.7674 c -0.25126,-20.50325 -0.83573,-29.7674 -1.878,-29.7674 -0.83228,0 -15.57344,14.0332 -32.75815,31.1849 -17.1847,17.15169 -32.57461,31.95963 -34.19976,32.90653 -3.80115,2.21478 -13.08865,2.21478 -16.92763,0 -1.64131,-0.9469 -17.22268,-15.91431 -34.62525,-33.26091 -17.40259,-17.3466 -32.6135,-31.53927 -33.80206,-31.53927 -1.18853,0 -2.46901,0.8284 -2.8455,1.84088 -0.89265,2.40057 -1.67758,49.83128 -0.93131,56.27642 0.43996,3.79988 1.91218,6.01723 6.28914,9.47232 10.66918,8.422 44.16636,41.70768 45.82987,45.54046 1.19592,2.75554 1.67218,19.1628 1.71695,59.14981 l 0.062,55.33653 6.19323,5.34241 c 10.60631,9.14925 14.77465,21.56331 11.69249,34.82211 -3.35461,14.43069 -13.64579,23.68966 -28.0194,25.20903 -20.4212,2.15858 -36.28447,-14.01938 -34.9502,-35.64357 0.68573,-11.11353 4.48524,-18.63554 12.56464,-24.87451 l 6.42131,-4.95861 v -51.3669 -51.3669 l -14.07914,-15.69241 c -11.87133,-13.23162 -14.12841,-15.17972 -14.39326,-12.42303 -0.17275,1.79816 -0.48181,33.59715 -0.68679,70.66439 -0.34374,62.16068 -0.56496,67.6977 -2.84827,71.29242 -4.38531,6.90395 -6.71401,7.22244 -53.15421,7.27016 -40.47728,0.0415 -44.05214,-0.16183 -55.43244,-3.15414 C 88.423131,408.11581 69.092047,396.74679 49.520815,376.57657 29.68132,356.12985 18.028639,334.782 10.07575,304.31284 6.8114125,291.80651 6.5335768,288.46278 6.5335768,261.6834 c 0,-26.77936 0.2778357,-30.12311 3.5421732,-42.62942 12.128951,-46.4686 38.538243,-81.44699 75.935906,-100.57504 19.557894,-10.00343 31.526244,-12.96169 54.852884,-13.55821 l 19.1399,-0.48945 6.27123,-12.512264 c 39.78288,-79.37402 134.23885,-109.435644 213.68109,-68.00628 42.15819,21.98562 74.93669,65.0989 84.50721,111.151654 l 1.44582,6.95712 22.26833,0.026 c 18.64369,0.0217 24.16872,0.54399 33.9437,3.20899 31.41547,8.56496 59.93661,31.68611 76.27266,61.83173 28.60341,52.78313 20.17382,125.23026 -19.72856,169.5547 -15.6352,17.3679 -33.53378,29.17838 -55.85731,36.85778 -9.3669,3.22226 -11.126,3.32005 -68.16596,3.78986 l -58.55094,0.48223 -3.85233,-3.4196 c -5.47563,-4.86053 -5.85146,-10.11793 -5.98561,-83.73155 l -0.11592,-63.59774 -12.95155,12.56785 -12.95156,12.56786 -0.0974,77.49226 -0.0974,77.49227 4.73829,3.02205 c 17.94369,11.44441 16.38129,43.16608 -2.6943,54.70256 -7.59441,4.59295 -19.53427,5.85688 -27.26658,2.88639 z m 19.26309,-21.23579 c 7.61316,-6.75795 2.70826,-22.13405 -7.06066,-22.13405 -1.78857,0 -5.1537,1.65138 -7.47807,3.66974 -3.40784,2.95919 -4.22611,4.75568 -4.22611,9.27816 0,11.09045 10.712,16.33441 18.76484,9.18615 z M 276.1463,440.87057 c 7.14812,-6.20707 5.1481,-16.51069 -3.96064,-20.40428 -3.3565,-1.43479 -4.99436,-1.43479 -8.35086,0 -8.6112,3.68092 -10.6446,12.33714 -4.63073,19.71277 4.6077,5.65101 10.93352,5.90918 16.94223,0.69151 z M 200.70505,372.9568 v -17.7187 l -12.70559,-0.0193 c -6.98806,-0.0113 -14.01645,-0.38243 -15.61863,-0.82618 -2.26761,-0.62804 -3.10026,-0.0372 -3.75781,2.66644 -1.08298,4.45288 -8.54037,12.12889 -14.23203,14.64926 -9.67506,4.28429 -23.76419,1.65201 -31.93578,-5.96659 -7.22171,-6.73308 -9.659,-12.68983 -9.659,-23.60677 0,-11.41995 3.979,-19.87156 12.15251,-25.81269 7.36635,-5.35442 20.39581,-6.65895 29.73723,-2.97735 5.64861,2.22621 14.42685,10.49681 14.42685,13.59257 0,0.79882 6.48348,1.36817 15.57991,1.36817 h 15.57993 l 0.89878,-24.4518 c 0.49435,-13.44848 0.90068,-30.35211 0.903,-37.56362 l 0.005,-13.11184 h -23.35078 c -14.60649,0 -23.3508,0.5293 -23.3508,1.41343 0,2.62623 -10.07779,12.94755 -15.35463,15.72568 -12.42707,6.54253 -27.20582,4.69869 -37.53355,-4.68282 -10.617862,-9.64504 -14.601554,-21.10726 -11.689541,-33.63405 4.678567,-20.12604 23.072611,-31.85154 42.443311,-27.056 9.61895,2.38133 17.63433,8.716 21.0186,16.61125 l 2.76633,6.45377 6.23433,-0.88183 c 3.42889,-0.48501 13.56539,-0.88184 22.52553,-0.88184 h 16.2912 v -29.10418 c 0,-31.04516 0.79109,-35.72009 7.27684,-43.00197 7.54862,-8.4752 23.34321,-12.34263 33.14567,-8.11594 2.54172,1.09597 18.03061,15.28864 34.4198,31.53927 16.38915,16.25065 30.41442,29.77781 31.16724,30.06033 0.75283,0.28251 14.44973,-12.86595 30.43753,-29.21885 31.71316,-32.4373 33.67266,-33.79457 47.12732,-32.64313 9.98161,0.85422 17.61787,6.43162 22.89394,16.72139 l 3.98509,7.77202 -0.49159,34.72864 -0.4916,34.72862 26.98087,0.38384 26.98087,0.38383 3.71304,-6.53841 c 4.60326,-8.10602 11.83024,-11.87242 22.86595,-11.91682 22.52397,-0.0906 37.40949,22.60446 28.63383,43.65626 -9.98222,23.94624 -39.51007,27.41553 -52.98413,6.22523 l -4.24692,-6.679 -25.97174,0.22774 -25.97177,0.22776 0.4551,32.37464 c 0.25031,17.80606 0.88358,32.83682 1.40731,33.40171 0.52372,0.56486 12.12106,0.62743 25.7719,0.13905 l 24.81969,-0.88804 2.47106,-3.7942 c 10.92441,-16.77398 36.52071,-13.99018 44.82447,4.87503 4.98862,11.33357 2.0062,27.75379 -6.25965,34.46362 -11.89995,9.65978 -32.99539,6.2585 -41.98458,-6.7693 l -2.93043,-4.24705 h -23.94446 -23.94403 v 17.71871 17.71869 h 44.42146 c 39.68825,0 45.54797,-0.29733 54.99347,-2.79031 27.61979,-7.28983 52.34639,-28.41125 65.91991,-56.30866 13.73232,-28.2238 15.56648,-69.84388 4.34692,-98.6382 -10.68912,-27.43294 -33.51157,-50.04174 -59.79574,-59.23604 -12.8011,-4.47787 -39.89953,-5.4773 -55.70451,-2.05448 -6.31782,1.36823 -13.07698,2.07586 -15.02036,1.57249 -4.54825,-1.17803 -8.93078,-8.62501 -8.93736,-15.18667 -0.008,-7.97591 -6.12268,-30.93964 -11.34368,-42.60115 -7.02334,-15.687134 -13.54296,-25.442434 -25.83179,-38.652054 -18.8008,-20.20953 -41.99868,-34.38378 -66.70357,-40.75693 -9.62509,-2.48301 -16.24346,-3.15465 -31.42328,-3.18889 -19.38687,-0.0438 -25.94367,0.95908 -43.26761,6.61742 -36.96047,12.07204 -68.28173,43.19617 -81.05399,80.543874 -2.25459,6.59268 -5.18283,12.83966 -6.50722,13.88218 -2.51352,1.97855 -9.97383,1.63851 -25.0057,-1.13977 -9.49961,-1.75576 -29.52722,0.27665 -40.24842,4.08447 -43.874152,15.58263 -73.301853,56.4443 -79.31358,110.13039 -1.837968,16.41359 -0.318979,36.04417 4.142294,53.53259 11.014883,43.17901 42.708599,76.19575 83.761176,87.25772 8.89341,2.39641 15.13739,2.78658 45.6714,2.85396 l 35.36956,0.0781 z M 492.97097,351.614 c 3.46444,-2.5042 4.32834,-11.94623 1.32812,-14.51581 -3.7803,-3.23767 -8.62433,-3.341 -12.41393,-0.26477 -9.66882,7.84868 0.99881,22.07169 11.08581,14.78058 z m -343.08822,-2.04588 c 1.64102,-1.6935 2.74716,-4.72498 2.74716,-7.52894 0,-10.72219 -11.64059,-14.85318 -18.42118,-6.53724 -4.30014,5.27381 -4.46016,8.24518 -0.70919,13.16628 3.63213,4.76512 12.18265,5.23479 16.38321,0.8999 z m 351.29191,-88.72587 c 3.81405,-4.40504 3.93675,-9.0063 0.36512,-13.69208 -5.36354,-7.03667 -14.61249,-6.11192 -18.60743,1.86045 -1.85531,3.70254 -1.95083,5.16534 -0.56293,8.62313 3.41265,8.50236 12.83034,10.10917 18.80524,3.2085 z M 131.61553,249.6303 c 4.00601,-2.89565 6.36492,-10.61154 4.65937,-15.24082 -4.81963,-13.08201 -23.47869,-9.61997 -23.47869,4.35627 0,10.38139 10.84098,16.65149 18.81932,10.88455 z"
         id="path1"
         sodipodi:nodetypes="ssscssscsssssssssssscssssscccsssssssssssscssscsssssscsscccccsssssssssssssscccssssssssscsccssssssscsscsssssssscccccsssscccssscsssscccccssssssscsssssssssssssccssssssssssssssssss" />
    </g>
  </g>
</svg>
